<svg xmlns="http://www.w3.org/2000/svg" viewBox="0 0 100 100">
  <defs>
    <linearGradient id="grad" x1="0%" y1="0%" x2="100%" y2="100%">
      <stop offset="0%" style="stop-color:#4a9eff"/>
      <stop offset="100%" style="stop-color:#7c3aed"/>
    </linearGradient>
  </defs>
  <circle cx="50" cy="50" r="45" fill="url(#grad)"/>
  <g fill="white">
    <!-- Music note icon -->
    <path d="M65 25v35c0 5.5-6.7 10-15 10s-15-4.5-15-10 6.7-10 15-10c3.3 0 6.3.7 8.8 2V30l-25 5v30c0 5.5-6.7 10-15 10s-15-4.5-15-10 6.7-10 15-10c3.3 0 6.3.7 8.8 2V25l37.4-7.5V25z" transform="translate(15, 15) scale(0.7)"/>
  </g>
</svg>
